<svg aria-hidden="true" style="position: absolute; width: 0; height: 0; overflow: hidden;" version="1.1" xmlns="http://www.w3.org/2000/svg" xmlns:xlink="http://www.w3.org/1999/xlink">
<defs>
<symbol id="icon-logo" viewBox="0 0 32 32">
<path fill="#85aa9f" style="fill: var(--color1, #85aa9f)" d="M32 16c0 8.837-7.163 16-16 16s-16-7.163-16-16c0-8.837 7.163-16 16-16s16 7.163 16 16z"></path>
<path fill="#fcfcfc" style="fill: var(--color2, #fcfcfc)" d="M15.956 14.815c4.696-3.542 4.904-5.689 0-9.482-4.997 3.873-4.353 5.927 0 9.482zM14.815 16.045c-3.542-4.696-5.689-4.904-9.482 0 3.873 4.997 5.927 4.353 9.482 0zM26.666 16.045c-3.542-4.696-5.689-4.904-9.482 0 3.873 4.997 5.927 4.353 9.482 0zM15.956 26.666c4.696-3.542 4.904-5.689 0-9.482-4.997 3.873-4.353 5.927 0 9.482z"></path>
</symbol>
<symbol id="icon-user" viewBox="0 0 32 32">
<path d="M15.238 0c2.021 0 3.959 0.803 5.387 2.232s2.232 3.367 2.232 5.388c0 2.021-0.803 3.959-2.232 5.387s-3.367 2.232-5.387 2.232c-2.021 0-3.959-0.803-5.387-2.232s-2.232-3.367-2.232-5.387c0-2.021 0.803-3.959 2.232-5.388s3.367-2.232 5.387-2.232zM15.238 30.476c0 0 15.238 0 15.238-3.809 0-4.572-7.429-9.524-15.238-9.524s-15.238 4.952-15.238 9.524c0 3.809 15.238 3.809 15.238 3.809z"></path>
</symbol>
</defs>
</svg>
